HIERARCHY
ROOT Hips
{
  OFFSET 49.0495 95.1905 -22.7928
  CHANNELS 6 Xposition Yposition Zposition Zrotation Xrotation Yrotation
  JOINT spine
  {
    OFFSET 0 7.96568 0.458067
    CHANNELS 3 Zrotation Xrotation Yrotation
    JOINT spine1
    {
      OFFSET 0 10.2431 0
      CHANNELS 3 Zrotation Xrotation Yrotation
      JOINT spine2
      {
        OFFSET 0 9.81475 0
        CHANNELS 3 Zrotation Xrotation Yrotation
        JOINT Neck
        {
          OFFSET 0 25.1986 1.20138
          CHANNELS 3 Zrotation Xrotation Yrotation
          JOINT Head
          {
            OFFSET 0 7.61315 0
            CHANNELS 3 Zrotation Xrotation Yrotation
            End Site
            {
              OFFSET 0 18.4281 -6.07733
            }
          }
        }
        JOINT RightShoulder
        {
          OFFSET -4.1327 10.5992 -0.575451
          CHANNELS 3 Zrotation Xrotation Yrotation
          JOINT RightArm
          {
            OFFSET 0 13.9018 0
            CHANNELS 3 Zrotation Xrotation Yrotation
            JOINT RightArmRoll
            {
              OFFSET 0 7.01788 0
              CHANNELS 3 Zrotation Xrotation Yrotation
              JOINT RightForeArm
              {
                OFFSET 0 20.4406 0
                CHANNELS 3 Zrotation Xrotation Yrotation
                JOINT RightForeArmRoll
                {
                  OFFSET 0 7.87515 0
                  CHANNELS 3 Zrotation Xrotation Yrotation
                  JOINT RightHand
                  {
                    OFFSET 0 15.8037 0
                    CHANNELS 3 Zrotation Xrotation Yrotation
                    End Site
                    {
                      OFFSET 0 0 0
                    }
                  }
                }
              }
            }
          }
        }
        JOINT LeftShoulder
        {
          OFFSET 4.1327 10.5992 -0.575451
          CHANNELS 3 Zrotation Xrotation Yrotation
          JOINT LeftArm
          {
            OFFSET 0 13.9018 0
            CHANNELS 3 Zrotation Xrotation Yrotation
            JOINT LeftArmRoll
            {
              OFFSET 0 7.01789 0
              CHANNELS 3 Zrotation Xrotation Yrotation
              JOINT LeftForeArm
              {
                OFFSET 0 20.4406 0
                CHANNELS 3 Zrotation Xrotation Yrotation
                JOINT LeftForeArmRoll
                {
                  OFFSET 0 7.87515 0
                  CHANNELS 3 Zrotation Xrotation Yrotation
                  JOINT LeftHand
                  {
                    OFFSET 0 15.8037 0
                    CHANNELS 3 Zrotation Xrotation Yrotation
                    End Site
                    {
                      OFFSET 0 0 0
                    }
                  }
                }
              }
            }
          }
        }
      }
    }
  }
  JOINT RightUpLeg
  {
    OFFSET -7.06048 -1.2947 -1.0861
    CHANNELS 3 Zrotation Xrotation Yrotation
    JOINT RightUpLegRoll
    {
      OFFSET 0 18.5308 0
      CHANNELS 3 Zrotation Xrotation Yrotation
      JOINT RightLeg
      {
        OFFSET 0 -22.9476 0
        CHANNELS 3 Zrotation Xrotation Yrotation
        JOINT RightLegRoll
        {
          OFFSET 0 23.0226 0
          CHANNELS 3 Zrotation Xrotation Yrotation
          JOINT RightFoot
          {
            OFFSET 0 19.1625 0
            CHANNELS 3 Zrotation Xrotation Yrotation
            JOINT RightToeBase
            {
              OFFSET 0 16.0188 0
              CHANNELS 3 Zrotation Xrotation Yrotation
              End Site
              {
                OFFSET 0.00678979 7.75781 -0.894207
              }
            }
          }
        }
      }
    }
  }
  JOINT LeftUpLeg
  {
    OFFSET 7.06048 -1.2947 -1.0861
    CHANNELS 3 Zrotation Xrotation Yrotation
    JOINT LeftUpLegRoll
    {
      OFFSET 0 18.5309 0
      CHANNELS 3 Zrotation Xrotation Yrotation
      JOINT LeftLeg
      {
        OFFSET 0 22.9475 0
        CHANNELS 3 Zrotation Xrotation Yrotation
        JOINT LeftLegRoll
        {
          OFFSET 0 23.2355 0
          CHANNELS 3 Zrotation Xrotation Yrotation
          JOINT LeftFoot
          {
            OFFSET 0 18.9496 0
            CHANNELS 3 Zrotation Xrotation Yrotation
            JOINT LeftToeBase
            {
              OFFSET 0 16.0188 0
              CHANNELS 3 Zrotation Xrotation Yrotation
              End Site
              {
                OFFSET -0.0304289 7.75782 -0.894207
              }
            }
          }
        }
      }
    }
  }
}
MOTION
Frames: 6
Frame Time: 0.00208333
58.4393 104.453 14.1606 -4.24616 3.01196 4.47358 0.0723695 -1.70063 -0.157283 0.141428 0.601359 -0.321798 0.145361 2.24643 -0.324296 10.9477 2.35055 -0.873229 -5.7809 -3.79851 0.298105 61.4423 -5.25178 -3.39788 93.2245 10.5088 8.27614 1.96748e-006 -1.63413e-006 7.68102e-007 18.2649 23.3486 -4.60735 -7.47495e-006 2.2016e-006 -2.99999 8.02999 -4.95139 0.697649 -54.9303 -1.37761 0.426523 -97.3408 14.449 0.0300139 -1.11941e-006 4.39483e-006 -3.96284e-006 -21.195 23.9418 4.6607 7.53683e-007 1.58095e-007 3.0065 -8.03025 -4.95138 -0.697638 174.873 7.91071 -1.04208 180 7.01539e-015 178.89 177.094 12.7531 179.664 2.08625e-006 -3.52112e-006 0.166818 -19.4065 68.5702 20.0241 8.11923 24.9918 -3.78911 -168.346 12.2235 -2.48961 4.5067e-006 -1.99009e-005 -1.05622 -0.238759 -17.1008 0.516421 5.31031e-007 -5.43446e-006 -0.348523 20.1915 69.4401 -20.8323 -8.12164 25.0236 3.75038 
58.3656 104.865 14.2064 -4.27422 2.87647 4.52872 0.0711054 -1.68995 -0.138429 0.139331 0.622758 -0.283977 0.142811 2.26783 -0.286426 11.3003 2.48781 -0.930602 -6.02474 -3.67042 0.291945 61.5464 -5.44696 -3.51896 92.9682 10.4107 8.40428 1.96748e-006 -1.63413e-006 7.68102e-007 18.309 23.0499 -4.54891 -7.47495e-006 2.2016e-006 -2.99999 8.02999 -4.95139 0.697649 -54.8823 -1.25444 0.339486 -97.0895 14.2029 0.295869 -1.11941e-006 4.39483e-006 -3.96284e-006 -21.4959 24.3646 4.81127 7.53683e-007 1.58095e-007 3.00651 -8.03025 -4.95138 -0.697638 175.088 7.29424 -1.36072 180 7.0154e-015 178.894 177.327 11.7132 179.642 2.08625e-006 -3.52112e-006 0.148304 -19.2784 68.4185 19.8911 8.12102 25.0152 -3.75993 -168.38 11.8953 -2.33193 4.5067e-006 -1.99009e-005 -1.04559 -0.138389 -16.469 0.517118 5.31031e-007 -5.43446e-006 -0.345749 20.2536 69.5266 -20.9138 -8.12317 25.0439 3.72494 
58.3867 105.365 14.2677 -4.30073 2.74133 4.5885 0.0696663 -1.67829 -0.119306 0.136881 0.646086 -0.245601 0.1399 2.29116 -0.247995 11.6458 2.61925 -0.990932 -6.26496 -3.54057 0.28203 61.6462 -5.64519 -3.64191 92.7183 10.3119 8.53571 1.96748e-006 -1.63413e-006 7.68102e-007 18.35 22.7444 -4.48846 -7.47495e-006 2.2016e-006 -2.99999 8.02999 -4.95139 0.697649 -54.8378 -1.12804 0.250814 -96.8342 13.9633 0.563642 -1.11941e-006 4.39483e-006 -3.96284e-006 -21.7971 24.7809 4.96196 7.53683e-007 1.58095e-007 3.00651 -8.03025 -4.95138 -0.697638 175.292 6.69156 -1.66756 180 7.01541e-015 178.898 177.553 10.7027 179.623 2.08625e-006 -3.52112e-006 0.130476 -19.1568 68.2721 19.7646 8.1233 25.0454 -3.72224 -168.412 11.5852 -2.17999 4.5067e-006 -1.99009e-005 -1.03488 -0.0410258 -15.8706 0.517174 5.31031e-007 -5.43446e-006 -0.34432 20.3262 69.6244 -21.0068 -8.12512 25.0701 3.69208 
58.4499 105.785 14.3525 -4.3258 2.60915 4.65145 0.0681031 -1.6664 -0.100475 0.134163 0.669882 -0.207794 0.136728 2.31496 -0.210129 11.9785 2.74868 -1.05264 -6.49701 -3.41327 0.269496 61.7402 -5.84072 -3.76323 92.4756 10.2097 8.66973 1.96748e-006 -1.63413e-006 7.68102e-007 18.3883 22.4344 -4.42662 -7.47495e-006 2.2016e-006 -2.99999 8.02999 -4.95139 0.697649 -54.7984 -1.00167 0.162871 -96.5742 13.7301 0.830415 -1.11941e-006 4.39483e-006 -3.96284e-006 -22.0971 25.1885 5.11172 7.53683e-007 1.58095e-007 3.00651 -8.03025 -4.95138 -0.697638 175.484 6.11019 -1.9605 180 7.01542e-015 178.903 177.769 9.73287 179.606 2.08625e-006 -3.52112e-006 0.113478 -19.0418 68.1319 19.6451 8.12585 25.0798 -3.67922 -168.441 11.295 -2.03594 4.5067e-006 -1.99009e-005 -1.02422 0.0514486 -15.3073 0.516653 5.31031e-007 -5.43447e-006 -0.343866 20.4055 69.7288 -21.1072 -8.1273 25.0999 3.65459 
58.3926 106.258 14.4041 -4.34958 2.4825 4.7161 0.0664678 -1.65501 -0.0824926 0.13127 0.692685 -0.171678 0.133401 2.33777 -0.17395 12.2926 2.87993 -1.11414 -6.71638 -3.2928 0.255477 61.8272 -6.02781 -3.87942 92.2408 10.1014 8.8056 1.96748e-006 -1.63413e-006 7.68102e-007 18.4247 22.1224 -4.36401 -7.47495e-006 2.2016e-006 -2.99999 8.02999 -4.95139 0.697649 -54.766 -0.878607 0.0780176 -96.3088 13.5029 1.09328 -1.11941e-006 4.39483e-006 -3.96284e-006 -22.3944 25.585 5.25948 7.53683e-007 1.58095e-007 3.00652 -8.03025 -4.95138 -0.697638 175.664 5.55767 -2.23743 180 7.01543e-015 178.907 177.973 8.81458 179.59 2.08625e-006 -3.52112e-006 0.0974571 -18.934 67.9986 19.5331 8.12846 25.1159 -3.63405 -168.467 11.0267 -1.90191 4.5067e-006 -1.99009e-005 -1.01377 0.137145 -14.7809 0.515616 5.31032e-007 -5.43447e-006 -0.344017 20.488 69.8351 -21.2105 -8.12954 25.1313 3.61522 
58.3352 106.586 14.4326 -4.37224 2.36397 4.78098 0.0648143 -1.64485 -0.0659187 0.128298 0.713034 -0.138375 0.13003 2.35812 -0.140584 12.5822 3.01682 -1.17386 -6.91858 -3.18345 0.241108 61.9058 -6.20071 -3.98694 92.0147 9.98415 8.94259 1.96748e-006 -1.63413e-006 7.68102e-007 18.4596 21.8108 -4.30122 -7.47495e-006 2.2016e-006 -2.99999 8.02999 -4.95139 0.697649 -54.7425 -0.76211 -0.00138304 -96.0375 13.2817 1.34935 -1.11941e-006 4.39483e-006 -3.96284e-006 -22.6875 25.9683 5.40415 7.53683e-007 1.58095e-007 3.00652 -8.03025 -4.95138 -0.697638 175.832 5.0415 -2.49625 180 7.01544e-015 178.911 178.162 7.95894 179.577 2.08625e-006 -3.52112e-006 0.0825592 -18.8336 67.8733 19.4289 8.13095 25.1511 -3.58992 -168.489 10.782 -1.78003 4.5067e-006 -1.99009e-005 -1.00365 0.214171 -14.2932 0.514126 5.31032e-007 -5.43448e-006 -0.344402 20.5695 69.9385 -21.3123 -8.13169 25.1619 3.57677 
